<svg xmlns="http://www.w3.org/2000/svg" viewBox="0 0 512 512" role="img" aria-labelledby="title desc">
  <title id="title">HideLine app icon</title>
  <desc id="desc">A navy rounded square with an orange location pin and mint transit line.</desc>
  <defs>
    <linearGradient id="bg" x1="52" y1="30" x2="452" y2="492" gradientUnits="userSpaceOnUse">
      <stop stop-color="#102f4a"/>
      <stop offset="1" stop-color="#071827"/>
    </linearGradient>
    <linearGradient id="pin" x1="185" y1="116" x2="329" y2="359" gradientUnits="userSpaceOnUse">
      <stop stop-color="#ffad5c"/>
      <stop offset="1" stop-color="#f26a3d"/>
    </linearGradient>
    <filter id="shadow" x="-30%" y="-30%" width="160%" height="170%">
      <feDropShadow dx="0" dy="18" stdDeviation="16" flood-color="#000" flood-opacity=".28"/>
    </filter>
  </defs>
  <rect x="20" y="20" width="472" height="472" rx="112" fill="url(#bg)"/>
  <path d="M96 340h84c22 0 40-18 40-40v-72c0-22 18-40 40-40h156" fill="none" stroke="#68dfc3" stroke-width="28" stroke-linecap="round" stroke-linejoin="round"/>
  <circle cx="96" cy="340" r="22" fill="#edf3f7" stroke="#68dfc3" stroke-width="12"/>
  <circle cx="416" cy="188" r="22" fill="#edf3f7" stroke="#68dfc3" stroke-width="12"/>
  <g filter="url(#shadow)">
    <path d="M256 88c-79.5 0-144 64.5-144 144 0 104.4 144 216 144 216s144-111.6 144-216c0-79.5-64.5-144-144-144Z" fill="url(#pin)"/>
    <circle cx="256" cy="232" r="62" fill="#fff"/>
    <path d="M216 204v57m80-57v57m-80-28h80" stroke="#0b1f33" stroke-width="24" stroke-linecap="round"/>
  </g>
</svg>
