<svg xmlns="http://www.w3.org/2000/svg" viewBox="0 0 512 512">
  <defs>
    <linearGradient id="bg" x1="0" y1="0" x2="1" y2="1"><stop stop-color="#123653"/><stop offset="1" stop-color="#06131f"/></linearGradient>
    <linearGradient id="pin" x1="0" y1="0" x2="1" y2="1"><stop stop-color="#ffb366"/><stop offset="1" stop-color="#f2643d"/></linearGradient>
  </defs>
  <rect width="512" height="512" fill="url(#bg)"/>
  <path d="M72 344h112c22 0 40-18 40-40v-70c0-22 18-40 40-40h176" fill="none" stroke="#68dfc3" stroke-width="30" stroke-linecap="round"/>
  <circle cx="72" cy="344" r="22" fill="#fff" stroke="#68dfc3" stroke-width="12"/>
  <circle cx="440" cy="194" r="22" fill="#fff" stroke="#68dfc3" stroke-width="12"/>
  <path d="M256 94c-76 0-138 62-138 138 0 101 138 208 138 208s138-107 138-208c0-76-62-138-138-138Z" fill="url(#pin)"/>
  <circle cx="256" cy="232" r="61" fill="#fff"/>
  <path d="M218 205v55m76-55v55m-76-27h76" stroke="#0b1f33" stroke-width="23" stroke-linecap="round"/>
</svg>
